<?xml version="1.0" encoding="utf-8"?>
<!-- Generator: Adobe Illustrator 19.2.1, SVG Export Plug-In . SVG Version: 6.00 Build 0)  -->
<svg version="1.1" id="Layer_1" xmlns="http://www.w3.org/2000/svg" xmlns:xlink="http://www.w3.org/1999/xlink" x="0px" y="0px"
	 viewBox="0 0 575 100" style="enable-background:new 0 0 575 100;" xml:space="preserve">
<style type="text/css">
	.st0{fill:#0DA1ED;}
	.st1{fill:#170D36;}
</style>
<g>
	<g>
		<path class="st0" d="M15.3,18.9H0V1.4h50.4v17.4H35.2v60.3H15.3V18.9z"/>
		<path class="st0" d="M40.7,49.8C40.7,35.7,50.9,19,72.1,19s31.4,16.7,31.4,31S93.3,81,72.1,81S40.7,64.3,40.7,50V49.8z M58.2,50.1
			c0,8.4,6.4,14.6,14,14.6c7.6,0,14-6.2,14-14.7s-6.4-14.7-14-14.7c-7.6,0-14,6.2-14,14.7V50.1z"/>
		<path class="st0" d="M106.6,20.8H123v6.4c3.8-4.4,9.6-8.4,18.5-8.4c20.7,0,28.5,18.2,28.5,31.7c0,16.8-11.8,30.6-28.4,30.6
			c-10.5,0-15.4-5-17.5-7.2v5.3v19.4h-17.4V20.8H106.6z M152.5,49.9c0-6.8-5-14.8-14.6-14.8c-4.2,0-7.9,1.7-10.5,4.4
			c-2.5,2.6-4.1,6.4-4.1,10.6c0,4.1,1.6,7.8,4.2,10.4c2.6,2.6,6.3,4.3,10.4,4.3c9.1,0,14.6-7.5,14.6-14.8L152.5,49.9L152.5,49.9z"/>
		<path class="st1" d="M173.7,1.4h25.4c12.2,0,19.7,2.2,24.1,5.6c6.5,5,9.5,12.7,9.5,21.2c0,6-1.7,10.6-3.9,14.1
			c-2.6,4.1-6.4,6.7-10.1,8.3l16,28.6h-20.5l-20.3-37.5h3.3c5,0,9.3-0.4,12-2.1c2.4-1.6,4.4-5.3,4.4-9.6c0-4.1-2-7.4-4.6-9
			c-2.2-1.4-5.4-2.1-8.1-2.1h-7.4v60.3h-19.8V1.4z"/>
		<path class="st1" d="M249,56c0.7,6.2,6.6,10.3,13.4,10.3c5.6,0,8.5-2.4,10.6-5.5h17.9c-2.8,6.5-6.9,11.6-11.9,14.9
			c-4.8,3.5-10.6,5.3-16.6,5.3c-16.7,0-30.9-13.6-30.9-30.9c0-16.3,12.8-31.3,30.6-31.3c8.9,0,16.6,3.5,22.1,9.2
			c7.4,7.9,9.6,17.2,8.2,27.9L249,56L249,56z M275.3,42.8c-0.4-2.7-4-9.2-13-9.2c-9,0-12.6,6.5-13,9.2H275.3z"/>
		<path class="st1" d="M320.6,37.2c-0.1-1.3-0.3-4.4-5.5-4.4c-3.7,0-4.9,2.3-4.9,3.9c0,2.6,4.3,4.4,8.9,5.8
			c9.9,2.7,20.4,5.7,20.4,18.3c0,12.8-10.8,20.4-23.7,20.4c-8.8,0-22.2-4-23.7-19.3h17.3c0.7,5.4,5.9,5.4,6.6,5.4
			c2.9,0,6.1-1.7,6.1-4.5c0-4-4.3-4.5-15.4-8.8c-7.6-2.4-13.9-7.4-13.9-15.2c0-12.1,10.5-19.7,22.6-19.7c7.7,0,20.9,3,22.4,18.4
			h-17.2V37.2z"/>
		<path class="st1" d="M395.4,79.2h-16.3V73c-2,2.8-5.7,8.2-16.2,8.2c-19.8,0-21.7-16-21.7-23.8V20.8h17.4v31.8
			c0,6.4,1.4,12.1,9.2,12.1c8.7,0,10.1-6.2,10.1-12.2V20.8h17.4v58.4H395.4z"/>
		<path class="st1" d="M401.1,20.8h16.3V27c0,0,1-2.1,3.6-4.1c2.5-2.1,6.6-4.1,12.7-4.1c4,0,9,1,13.3,5.6c1.3,1.3,2.4,2.8,3.5,4.8
			c1.2-1.8,2.5-3.6,4.2-5c3.5-3.1,8.2-5.4,14.3-5.4c4.1,0,10.6,0.9,15.3,5.9c5.5,5.8,6.3,9.7,6.3,22.6v31.8h-17.4v-31
			c0-2.4,0-5.6-1.2-8.2c-1-2.7-3.3-4.7-7.8-4.7c-4.8,0-7.2,2.2-8.4,4.8c-1.3,2.6-1.3,5.6-1.3,7.2V79h-17.4V47.4c0-1.6,0-4.6-1-7.2
			c-1.2-2.7-3.3-4.9-7.7-4.9c-4.9,0-7.4,2.3-8.6,5.1c-1.3,2.8-1.3,6-1.3,7.8v31h-17.4V20.8z"/>
		<path class="st1" d="M510.4,56c0.7,6.2,6.6,10.3,13.4,10.3c5.6,0,8.5-2.4,10.6-5.5h17.9c-2.8,6.5-6.9,11.6-11.9,14.9
			c-4.8,3.5-10.6,5.3-16.6,5.3c-16.7,0-30.9-13.6-30.9-30.9c0-16.3,12.8-31.3,30.6-31.3c8.9,0,16.6,3.5,22.1,9.2
			c7.4,7.9,9.6,17.2,8.2,27.9L510.4,56L510.4,56z M536.6,42.8c-0.4-2.7-4-9.2-13-9.2s-12.6,6.5-13,9.2H536.6z"/>
	</g>
	<g>
		<path class="st1" d="M548.9,13.7c0-1.8,0.5-3.6,1.4-5.2s2.2-2.9,3.8-3.8s3.4-1.4,5.2-1.4s3.6,0.5,5.2,1.4c1.6,0.9,2.9,2.2,3.8,3.8
			c0.9,1.6,1.4,3.4,1.4,5.2s-0.4,3.5-1.3,5.1c-0.9,1.6-2.1,2.9-3.8,3.8c-1.6,1-3.4,1.4-5.3,1.4c-1.9,0-3.7-0.5-5.3-1.4
			c-1.6-1-2.9-2.2-3.8-3.8C549.3,17.2,548.9,15.5,548.9,13.7z M550.8,13.7c0,1.5,0.4,2.9,1.1,4.2c0.8,1.3,1.8,2.3,3.1,3.1
			c1.3,0.8,2.7,1.1,4.2,1.1s2.9-0.4,4.2-1.1c1.3-0.8,2.3-1.8,3.1-3.1c0.8-1.3,1.1-2.7,1.1-4.2s-0.4-2.9-1.1-4.2
			c-0.8-1.3-1.8-2.3-3.1-3.1s-2.7-1.1-4.2-1.1s-2.9,0.4-4.2,1.1c-1.3,0.8-2.3,1.8-3.1,3.1C551.2,10.8,550.8,12.2,550.8,13.7z
			 M563.5,11.3c0,1.6-0.7,2.6-2,3.2l3.3,5.5h-3.5l-2.5-4.7h-0.7V20h-3.2V7.4h3.7c1.7,0,2.9,0.3,3.7,1C563.1,9,563.5,10,563.5,11.3z
			 M558.1,13h0.4c0.6,0,1-0.1,1.3-0.4c0.3-0.3,0.4-0.7,0.4-1.3s-0.1-1-0.4-1.3c-0.3-0.2-0.7-0.4-1.3-0.4h-0.4V13z"/>
	</g>
</g>
</svg>
